<svg width="26" height="26" viewBox="0 0 26 26" fill="none" xmlns="http://www.w3.org/2000/svg">
<path d="M11.2332 5.58039C11.977 5.33289 12.7703 5.20089 13.5935 5.20089C17.1967 5.20089 20.2049 7.75513 20.8925 11.1509L25.9998 10.1114C24.8296 4.34287 19.719 0 13.5935 0C12.1885 0 10.8431 0.227704 9.58032 0.650111L11.2332 5.58039Z" fill="#A9A9B2"/>
<path d="M5.20702 22.1005L8.6615 18.2031C7.12103 16.8402 6.14915 14.8503 6.14915 12.6327C6.14915 10.4183 7.12103 8.42838 8.6615 7.06876L5.20702 3.16809C2.58889 5.48473 0.936035 8.86729 0.936035 12.6327C0.936035 16.4013 2.58889 19.7839 5.20702 22.1005" fill="#E1E1E6"/>
<path d="M20.8925 14.1241C20.2016 17.5166 17.1967 20.0675 13.5968 20.0675C12.7703 20.0675 11.9737 19.9355 11.2332 19.6847L9.58032 24.6216C10.8431 25.0407 12.1918 25.2684 13.5968 25.2684C19.7157 25.2684 24.823 20.9322 25.9998 15.1703L20.8925 14.1241Z" fill="#323238"/>
</svg>
