<svg width="43" height="22" viewBox="0 0 43 22" fill="none" xmlns="http://www.w3.org/2000/svg">
<path d="M1.34161 17.0121C1.14936 16.7088 0.893027 16.2243 0.734701 15.8656C-0.188863 13.7648 -0.230329 11.5901 0.546219 9.50419C1.40193 7.21483 3.03795 5.46545 5.15273 4.57041C7.81033 3.44977 10.7469 3.66798 13.2952 5.15108C14.9123 6.0609 16.0583 7.46633 16.9291 9.45611C17.0384 9.71131 17.1364 9.9813 17.2345 10.2143L1.34161 17.0121ZM6.64928 7.94713C4.76069 8.7423 3.78812 10.4806 3.99168 12.5148L11.9833 9.13804C10.6074 7.55509 8.8206 7.02991 6.64928 7.94713ZM12.9785 15.2923C12.9747 15.2923 12.9747 15.296 12.9747 15.296L12.8089 15.1851C12.3301 15.9433 11.5875 16.5609 10.6489 16.9603C8.86206 17.7222 7.20719 17.5262 6.01598 16.5017L5.90666 16.6645C5.90666 16.6645 5.90666 16.6608 5.90289 16.6608L3.87482 19.638C4.37995 19.982 4.91901 20.2705 5.48446 20.5035C7.72363 21.417 10.0156 21.3726 12.2736 20.411C13.9059 19.7157 15.1875 18.6579 16.0621 17.3154L12.9785 15.2923ZM22.7871 0.191406V16.7384L25.4108 17.7814L23.9218 21.1914L21.0267 20.0079C20.3783 19.7305 19.9335 19.3089 19.6018 18.8318C19.2814 18.3473 19.0439 17.6778 19.0439 16.7828V0.191406H22.7871ZM29.5801 12.5259C29.5801 11.1167 30.2171 9.85185 31.2198 8.9938L28.5283 6.04981C26.7038 7.63276 25.5541 9.94431 25.5541 12.5185C25.5503 15.0963 26.7 17.4116 28.5208 18.9945L31.2085 16.0505C30.2096 15.1888 29.5801 13.9313 29.5801 12.5259ZM34.36 17.2192C33.8322 17.2192 33.3195 17.1305 32.8446 16.9751L32.2018 18.8484L31.5591 20.7217C32.4374 21.0102 33.3761 21.1692 34.3562 21.1692C38.6159 21.1729 42.1707 18.2067 42.9962 14.2678L39.0456 13.4764C38.597 15.6178 36.6708 17.2229 34.36 17.2192ZM34.3713 3.88249C33.3949 3.88249 32.4563 4.03783 31.578 4.32262L32.8521 8.07288C33.3309 7.91754 33.8398 7.83248 34.3675 7.83248C36.6821 7.83618 38.6121 9.44871 39.0494 11.5938L43 10.8098C42.1895 6.86347 38.6347 3.88619 34.3713 3.88249Z" fill="#E1E1E6"/>
</svg>
