<svg width="33" height="21" viewBox="0 0 33 21" fill="none" xmlns="http://www.w3.org/2000/svg">
<path d="M12.4462 18.5532H21.1956V2.82935H12.446L12.4462 18.5532Z" fill="#EEEEEE"/>
<path d="M0.64324 10.6914C0.64324 16.2143 5.11967 20.6914 10.6419 20.6914C12.884 20.6947 15.0615 19.9414 16.8223 18.5533C14.496 16.7223 13.0026 13.8811 13.0026 10.6914C13.0026 7.50167 14.496 4.66055 16.8223 2.8295C15.0616 1.44149 12.8841 0.688163 10.6421 0.691417C5.11983 0.691417 0.643402 5.1685 0.643402 10.6914" fill="white"/>
<path d="M20.641 10.6914C20.641 7.50183 19.1475 4.66055 16.8219 2.8295C18.5823 1.44145 20.7595 0.688105 23.0013 0.691417C28.5236 0.691417 33 5.1685 33 10.6914C33 16.2143 28.5236 20.6914 23.0013 20.6914C20.7595 20.6947 18.5822 19.9414 16.8218 18.5533C19.1472 16.7226 20.641 13.8811 20.641 10.6914Z" fill="#9E9E9E"/>
</svg>
